# xmcd
#
# Track frame offsets: 
#        150
#        19306
#        35200
#        49897
#        68520
#        83985
#        107540
#        121618
#        133192
#        147317
#        162996
#        178425
#        201182
#        211398
#        226979
#        244509
#        262227
#        279837
#        293141
#        314689
#
# Disc length: 4479 seconds
#
# Revision: 0
# Processed by: cddbd v1.5.2PL0 Copyright (c) Steve Scherf et al.
# Submitted via: ExactAudioCopy v1.0b3
#
DISCID=33117d14
DTITLE=Krystyna Giżowska - Moje piosenki
DYEAR=2006
DGENRE=Pop
TTITLE0=Nie było ciebie tyle lat
TTITLE1=W drodze do Fontainebleau
TTITLE2=Złote obrączki
TTITLE3=Nasza dyskoteka
TTITLE4=Przez morze siedmiu mórz
TTITLE5=Lubię się bać
TTITLE6=Zazdroszczę swym przodkom
TTITLE7=Hallo, Mr Gatsby
TTITLE8=Dama z pieskiem
TTITLE9=Barmanka
TTITLE10=Mały żal słodko śpi
TTITLE11=Kołysanka dla Katarzyny Niewielkiej
TTITLE12=Gdy w ogrodzie botanicznym
TTITLE13=Wybierz mnie
TTITLE14=Lot nr 205
TTITLE15=Z każdym kilometrem kocham bardziej
TTITLE16=Dzieli nas pół świata
TTITLE17=Jestem jak inne
TTITLE18=Blue Box
TTITLE19=Przeżyłam z tobą tyle lat
EXTD=
EXTT0=
EXTT1=
EXTT2=
EXTT3=
EXTT4=
EXTT5=
EXTT6=
EXTT7=
EXTT8=
EXTT9=
EXTT10=
EXTT11=
EXTT12=
EXTT13=
EXTT14=
EXTT15=
EXTT16=
EXTT17=
EXTT18=
EXTT19=
PLAYORDER=
